<svg width="40" height="41" viewBox="0 0 40 41" fill="none" xmlns="http://www.w3.org/2000/svg">
<g clip-path="url(#clip0_2012_82)">
<path d="M40 20.1493C40 9.1036 31.0457 0.149292 20 0.149292C8.9543 0.149292 0 9.1036 0 20.1493C0 31.195 8.9543 40.1493 20 40.1493C31.0457 40.1493 40 31.195 40 20.1493Z" fill="white" fill-opacity="0.12"/>
<mask id="mask0_2012_82" style="mask-type:luminance" maskUnits="userSpaceOnUse" x="11" y="11" width="18" height="18">
<path d="M28.75 11.3993H11.25V28.8993H28.75V11.3993Z" fill="white"/>
</mask>
<g mask="url(#mask0_2012_82)">
<path d="M21.6649 18.8056L28.1796 11.3993H26.6359L20.9791 17.83L16.461 11.3993H11.25L18.0822 21.1237L11.25 28.8903H12.7939L18.7676 22.0992L23.539 28.8903H28.75L21.6649 18.8056ZM19.5503 21.2094L18.8581 20.2411L13.3502 12.5359H15.7215L20.1664 18.7542L20.8587 19.7226L26.6366 27.8054H24.2653L19.5503 21.2094Z" fill="white"/>
</g>
</g>
<defs>
<clipPath id="clip0_2012_82">
<rect width="40" height="40" fill="white" transform="translate(0 0.149292)"/>
</clipPath>
</defs>
</svg>
