<svg width="100" height="31" viewBox="0 0 100 31" fill="none" xmlns="http://www.w3.org/2000/svg">
<g clip-path="url(#clip0_2012_71)">
<path d="M20.6992 16.0123C20.6992 11.7634 17.2548 8.31897 13.0058 8.31897C8.75693 8.31897 5.3125 11.7634 5.3125 16.0123C5.3125 20.2612 8.75693 23.7057 13.0058 23.7057C17.2548 23.7057 20.6992 20.2612 20.6992 16.0123Z" stroke="white" stroke-width="1.125"/>
<path d="M16.0171 11.3361C16.0171 9.66978 14.6663 8.31897 13 8.31897C11.3337 8.31897 9.98291 9.66978 9.98291 11.3361V20.6885C9.98291 22.3549 11.3337 23.7057 13 23.7057C14.6663 23.7057 16.0171 22.3549 16.0171 20.6885V11.3361Z" stroke="white" stroke-width="1.125"/>
<path d="M5.64697 15.9531H20.6991" stroke="white" stroke-width="1.125"/>
</g>
<path d="M31.1186 20.9531V10.7713H34.7479C35.54 10.7713 36.1963 10.9155 36.7166 11.2038C37.237 11.4922 37.6264 11.8866 37.8849 12.3871C38.1435 12.8842 38.2727 13.4444 38.2727 14.0675C38.2727 14.6939 38.1418 15.2573 37.88 15.7578C37.6214 16.255 37.2304 16.6494 36.7067 16.9411C36.1863 17.2294 35.5317 17.3736 34.7429 17.3736H32.2472V16.071H34.6037C35.1042 16.071 35.5102 15.9848 35.8217 15.8125C36.1333 15.6368 36.362 15.3982 36.5078 15.0966C36.6536 14.795 36.7266 14.4519 36.7266 14.0675C36.7266 13.683 36.6536 13.3416 36.5078 13.0433C36.362 12.745 36.1316 12.5114 35.8168 12.3423C35.5052 12.1733 35.0942 12.0888 34.5838 12.0888H32.6548V20.9531H31.1186ZM43.0753 21.1072C42.3594 21.1072 41.7346 20.9432 41.201 20.6151C40.6674 20.2869 40.2531 19.8279 39.9581 19.2379C39.6631 18.648 39.5156 17.9586 39.5156 17.1697C39.5156 16.3776 39.6631 15.6849 39.9581 15.0916C40.2531 14.4983 40.6674 14.0376 41.201 13.7095C41.7346 13.3814 42.3594 13.2173 43.0753 13.2173C43.7912 13.2173 44.416 13.3814 44.9496 13.7095C45.4832 14.0376 45.8975 14.4983 46.1925 15.0916C46.4875 15.6849 46.6349 16.3776 46.6349 17.1697C46.6349 17.9586 46.4875 18.648 46.1925 19.2379C45.8975 19.8279 45.4832 20.2869 44.9496 20.6151C44.416 20.9432 43.7912 21.1072 43.0753 21.1072ZM43.0803 19.8594C43.5443 19.8594 43.9287 19.7367 44.2337 19.4915C44.5386 19.2462 44.764 18.9197 44.9098 18.5121C45.0589 18.1044 45.1335 17.6553 45.1335 17.1648C45.1335 16.6776 45.0589 16.2301 44.9098 15.8224C44.764 15.4115 44.5386 15.0817 44.2337 14.8331C43.9287 14.5845 43.5443 14.4602 43.0803 14.4602C42.6129 14.4602 42.2251 14.5845 41.9169 14.8331C41.612 15.0817 41.3849 15.4115 41.2358 15.8224C41.09 16.2301 41.017 16.6776 41.017 17.1648C41.017 17.6553 41.09 18.1044 41.2358 18.5121C41.3849 18.9197 41.612 19.2462 41.9169 19.4915C42.2251 19.7367 42.6129 19.8594 43.0803 19.8594ZM48.2942 20.9531V13.3168H49.731V14.5298H49.8105C49.9498 14.1188 50.195 13.7957 50.5463 13.5604C50.901 13.3217 51.302 13.2024 51.7495 13.2024C51.8423 13.2024 51.9516 13.2057 52.0776 13.2124C52.2069 13.219 52.3079 13.2273 52.3809 13.2372V14.6591C52.3212 14.6425 52.2151 14.6243 52.0627 14.6044C51.9102 14.5812 51.7578 14.5696 51.6053 14.5696C51.254 14.5696 50.9408 14.6442 50.6657 14.7933C50.3939 14.9392 50.1784 15.143 50.0194 15.4048C49.8603 15.6634 49.7807 15.9583 49.7807 16.2898V20.9531H48.2942ZM57.6831 13.3168V14.5099H53.5119V13.3168H57.6831ZM54.6305 11.4872H56.117V18.7109C56.117 18.9993 56.1601 19.2164 56.2463 19.3622C56.3324 19.5047 56.4435 19.6025 56.5794 19.6555C56.7186 19.7053 56.8694 19.7301 57.0318 19.7301C57.1511 19.7301 57.2555 19.7218 57.345 19.7053C57.4345 19.6887 57.5041 19.6754 57.5538 19.6655L57.8223 20.8935C57.7361 20.9266 57.6135 20.9598 57.4544 20.9929C57.2953 21.0294 57.0964 21.0492 56.8578 21.0526C56.4667 21.0592 56.1021 20.9896 55.764 20.8438C55.426 20.6979 55.1525 20.4725 54.9437 20.1676C54.7349 19.8627 54.6305 19.4799 54.6305 19.0192V11.4872ZM64.1648 17.7862V13.3168H65.6562V20.9531H64.1946V19.6307H64.1151C63.9394 20.0384 63.6577 20.3781 63.2699 20.6499C62.8854 20.9183 62.4065 21.0526 61.8331 21.0526C61.3426 21.0526 60.9084 20.9448 60.5305 20.7294C60.156 20.5107 59.861 20.1875 59.6456 19.7599C59.4335 19.3324 59.3274 18.8037 59.3274 18.174V13.3168H60.8139V17.995C60.8139 18.5154 60.9581 18.9297 61.2464 19.2379C61.5348 19.5462 61.9093 19.7003 62.37 19.7003C62.6484 19.7003 62.9252 19.6307 63.2003 19.4915C63.4787 19.3523 63.709 19.1418 63.8913 18.8601C64.0769 18.5784 64.1681 18.2204 64.1648 17.7862ZM70.8553 23.9759C70.2488 23.9759 69.7267 23.8963 69.2892 23.7372C68.8551 23.5781 68.5004 23.3677 68.2253 23.1058C67.9502 22.844 67.7447 22.5573 67.6088 22.2457L68.8865 21.7188C68.976 21.8646 69.0953 22.0187 69.2445 22.1811C69.397 22.3468 69.6025 22.4877 69.861 22.6037C70.1228 22.7197 70.4592 22.7777 70.8702 22.7777C71.4337 22.7777 71.8993 22.6402 72.2672 22.3651C72.6351 22.0933 72.8191 21.6591 72.8191 21.0625V19.5611H72.7246C72.6351 19.7235 72.5059 19.9041 72.3368 20.103C72.1711 20.3018 71.9424 20.4742 71.6507 20.62C71.3591 20.7659 70.9796 20.8388 70.5123 20.8388C69.909 20.8388 69.3655 20.6979 68.8816 20.4162C68.401 20.1312 68.0198 19.7119 67.7381 19.1584C67.4597 18.6016 67.3205 17.9171 67.3205 17.1051C67.3205 16.2931 67.458 15.5971 67.7331 15.017C68.0115 14.437 68.3927 13.9929 68.8766 13.6847C69.3605 13.3731 69.909 13.2173 70.5222 13.2173C70.9962 13.2173 71.379 13.2969 71.6706 13.456C71.9623 13.6117 72.1893 13.794 72.3517 14.0028C72.5175 14.2116 72.6451 14.3956 72.7346 14.5547H72.8439V13.3168H74.3006V21.1222C74.3006 21.7784 74.1481 22.317 73.8432 22.7379C73.5383 23.1589 73.1257 23.4704 72.6053 23.6726C72.0882 23.8748 71.5049 23.9759 70.8553 23.9759ZM70.8404 19.6058C71.2679 19.6058 71.6292 19.5064 71.9242 19.3075C72.2225 19.1054 72.4479 18.817 72.6003 18.4425C72.7561 18.0646 72.834 17.6122 72.834 17.0852C72.834 16.5715 72.7578 16.1191 72.6053 15.728C72.4528 15.3369 72.2291 15.032 71.9341 14.8132C71.6391 14.5911 71.2746 14.4801 70.8404 14.4801C70.3929 14.4801 70.0201 14.5961 69.7218 14.8281C69.4235 15.0568 69.1981 15.3684 69.0456 15.7628C68.8965 16.1572 68.8219 16.598 68.8219 17.0852C68.8219 17.5857 68.8981 18.0249 69.0506 18.4027C69.2031 18.7805 69.4284 19.0755 69.7267 19.2876C70.0283 19.4998 70.3996 19.6058 70.8404 19.6058ZM81.1316 17.7862V13.3168H82.623V20.9531H81.1614V19.6307H81.0819C80.9062 20.0384 80.6245 20.3781 80.2367 20.6499C79.8522 20.9183 79.3733 21.0526 78.7999 21.0526C78.3094 21.0526 77.8752 20.9448 77.4973 20.7294C77.1228 20.5107 76.8278 20.1875 76.6124 19.7599C76.4003 19.3324 76.2942 18.8037 76.2942 18.174V13.3168H77.7807V17.995C77.7807 18.5154 77.9249 18.9297 78.2132 19.2379C78.5016 19.5462 78.8761 19.7003 79.3368 19.7003C79.6152 19.7003 79.892 19.6307 80.1671 19.4915C80.4455 19.3523 80.6758 19.1418 80.8581 18.8601C81.0437 18.5784 81.1349 18.2204 81.1316 17.7862ZM87.9116 21.1072C87.1592 21.1072 86.5112 20.9465 85.9677 20.625C85.4274 20.3002 85.0098 19.8445 84.7148 19.2578C84.4232 18.6679 84.2773 17.9768 84.2773 17.1847C84.2773 16.4025 84.4232 15.7131 84.7148 15.1165C85.0098 14.5199 85.4208 14.0542 85.9478 13.7195C86.4781 13.3847 87.0979 13.2173 87.8072 13.2173C88.238 13.2173 88.6557 13.2886 89.06 13.4311C89.4644 13.5736 89.8273 13.7973 90.1488 14.1023C90.4703 14.4072 90.7238 14.8033 90.9094 15.2905C91.0951 15.7744 91.1879 16.3627 91.1879 17.0554V17.5824H85.1175V16.4688H89.7312C89.7312 16.0777 89.6516 15.7313 89.4925 15.4297C89.3335 15.1248 89.1097 14.8845 88.8214 14.7088C88.5363 14.5331 88.2016 14.4453 87.8171 14.4453C87.3995 14.4453 87.0349 14.5481 86.7234 14.7536C86.4151 14.9557 86.1765 15.2209 86.0075 15.549C85.8417 15.8738 85.7589 16.2268 85.7589 16.608V17.478C85.7589 17.9884 85.8484 18.4226 86.0273 18.7805C86.2096 19.1385 86.4632 19.4119 86.788 19.6009C87.1128 19.7865 87.4923 19.8793 87.9265 19.8793C88.2082 19.8793 88.4651 19.8395 88.6971 19.7599C88.9291 19.6771 89.1296 19.5545 89.2987 19.392C89.4677 19.2296 89.5969 19.0291 89.6864 18.7905L91.0934 19.044C90.9807 19.4583 90.7785 19.8213 90.4869 20.1328C90.1985 20.4411 89.8356 20.6813 89.3981 20.8537C88.9639 21.0227 88.4684 21.1072 87.9116 21.1072ZM88.7717 12.402L87.7525 11.0696L86.7283 12.402H85.386V12.3274L87.131 10.2195H88.369L90.119 12.3274V12.402H88.7717ZM98.5595 15.1811L97.2122 15.4197C97.1558 15.2474 97.0663 15.0833 96.9437 14.9276C96.8244 14.7718 96.662 14.6442 96.4565 14.5447C96.251 14.4453 95.9941 14.3956 95.6859 14.3956C95.265 14.3956 94.9136 14.4901 94.6319 14.679C94.3502 14.8646 94.2093 15.1049 94.2093 15.3999C94.2093 15.6551 94.3038 15.8606 94.4927 16.0163C94.6816 16.1721 94.9866 16.2997 95.4075 16.3991L96.6206 16.6776C97.3232 16.84 97.8469 17.0902 98.1916 17.4283C98.5363 17.7663 98.7086 18.2055 98.7086 18.7457C98.7086 19.2031 98.5761 19.6108 98.3109 19.9688C98.0491 20.3234 97.6828 20.6018 97.2122 20.804C96.7449 21.0062 96.2029 21.1072 95.5865 21.1072C94.7314 21.1072 94.0337 20.925 93.4934 20.5604C92.9532 20.1925 92.6217 19.6705 92.4991 18.9943L93.9359 18.7756C94.0254 19.1501 94.2093 19.4335 94.4877 19.6257C94.7662 19.8146 95.1291 19.9091 95.5765 19.9091C96.0637 19.9091 96.4532 19.808 96.7449 19.6058C97.0365 19.4003 97.1824 19.1501 97.1824 18.8551C97.1824 18.6165 97.0929 18.416 96.9139 18.2536C96.7382 18.0911 96.4681 17.9685 96.1035 17.8857L94.8109 17.6023C94.0983 17.4399 93.5713 17.1813 93.2299 16.8267C92.8919 16.4721 92.7228 16.023 92.7228 15.4794C92.7228 15.0286 92.8488 14.6342 93.1007 14.2962C93.3526 13.9581 93.7006 13.6946 94.1447 13.5057C94.5888 13.3134 95.0976 13.2173 95.671 13.2173C96.4963 13.2173 97.1459 13.3963 97.6199 13.7543C98.0938 14.1089 98.407 14.5845 98.5595 15.1811Z" fill="white"/>
<defs>
<clipPath id="clip0_2012_71">
<rect width="18" height="18" fill="white" transform="translate(4 6.95312)"/>
</clipPath>
</defs>
</svg>
