<svg width="41" height="41" viewBox="0 0 41 41" fill="none" xmlns="http://www.w3.org/2000/svg">
<g clip-path="url(#clip0_2012_89)">
<path d="M40.3281 20.1493C40.3281 9.1036 31.3738 0.149292 20.3281 0.149292C9.28243 0.149292 0.328125 9.1036 0.328125 20.1493C0.328125 31.195 9.28243 40.1493 20.3281 40.1493C31.3738 40.1493 40.3281 31.195 40.3281 20.1493Z" fill="white" fill-opacity="0.12"/>
<path d="M24.3286 16.6493C25.92 16.6493 27.4461 17.2814 28.5713 18.4067C29.6965 19.5319 30.3287 21.058 30.3287 22.6493V29.6494H26.3287V22.6493C26.3287 22.1189 26.1179 21.6102 25.7429 21.2351C25.3678 20.86 24.8591 20.6493 24.3286 20.6493C23.7982 20.6493 23.2895 20.86 22.9144 21.2351C22.5393 21.6102 22.3286 22.1189 22.3286 22.6493V29.6494H18.3286V22.6493C18.3286 21.058 18.9607 19.5319 20.086 18.4067C21.2112 17.2814 22.7373 16.6493 24.3286 16.6493Z" fill="white"/>
<path d="M14.3281 17.6493H10.3281V29.6494H14.3281V17.6493Z" fill="white"/>
<path d="M12.3281 14.6498C13.4327 14.6498 14.3281 13.7544 14.3281 12.6498C14.3281 11.5452 13.4327 10.6498 12.3281 10.6498C11.2235 10.6498 10.3281 11.5452 10.3281 12.6498C10.3281 13.7544 11.2235 14.6498 12.3281 14.6498Z" fill="white"/>
</g>
<defs>
<clipPath id="clip0_2012_89">
<rect width="40" height="40" fill="white" transform="translate(0.328125 0.149292)"/>
</clipPath>
</defs>
</svg>
