<svg width="41" height="41" viewBox="0 0 41 41" fill="none" xmlns="http://www.w3.org/2000/svg">
<g clip-path="url(#clip0_2012_97)">
<path d="M40.9844 20.1493C40.9844 9.1036 32.0301 0.149292 20.9844 0.149292C9.93868 0.149292 0.984375 9.1036 0.984375 20.1493C0.984375 31.195 9.93868 40.1493 20.9844 40.1493C32.0301 40.1493 40.9844 31.195 40.9844 20.1493Z" fill="white" fill-opacity="0.12"/>
<path d="M17.1527 20.1493C17.1527 18.0323 18.8684 16.3157 20.9854 16.3157C23.1024 16.3157 24.819 18.0323 24.819 20.1493C24.819 22.2663 23.1024 23.9829 20.9854 23.9829C18.8684 23.9829 17.1527 22.2663 17.1527 20.1493ZM15.0802 20.1493C15.0802 23.4107 17.7239 26.0544 20.9854 26.0544C24.2468 26.0544 26.8905 23.4107 26.8905 20.1493C26.8905 16.8879 24.2468 14.2442 20.9854 14.2442C17.7239 14.2442 15.0802 16.8879 15.0802 20.1493ZM25.7442 14.0101C25.7442 14.7718 26.362 15.3905 27.1246 15.3905C27.8863 15.3905 28.505 14.7718 28.505 14.0101C28.505 13.2484 27.8872 12.6306 27.1246 12.6306C26.362 12.6306 25.7442 13.2484 25.7442 14.0101ZM16.3389 29.51C15.2177 29.4589 14.6084 29.2722 14.2033 29.1143C13.6664 28.9053 13.2837 28.6563 12.8806 28.2541C12.4783 27.8519 12.2285 27.4692 12.0204 26.9323C11.8625 26.5273 11.6758 25.9179 11.6247 24.7967C11.5689 23.5844 11.5578 23.2203 11.5578 20.1493C11.5578 17.0783 11.5699 16.7151 11.6247 15.5019C11.6758 14.3807 11.8634 13.7723 12.0204 13.3663C12.2294 12.8294 12.4783 12.4467 12.8806 12.0436C13.2828 11.6413 13.6655 11.3915 14.2033 11.1834C14.6084 11.0255 15.2177 10.8388 16.3389 10.7877C17.5512 10.7319 17.9153 10.7208 20.9854 10.7208C24.0564 10.7208 24.4196 10.7329 25.6328 10.7877C26.754 10.8388 27.3624 11.0264 27.7683 11.1834C28.3052 11.3915 28.688 11.6413 29.0911 12.0436C29.4933 12.4458 29.7423 12.8294 29.9513 13.3663C30.1092 13.7714 30.2959 14.3807 30.347 15.5019C30.4027 16.7151 30.4139 17.0783 30.4139 20.1493C30.4139 23.2194 30.4027 23.5835 30.347 24.7967C30.2959 25.9179 30.1083 26.5273 29.9513 26.9323C29.7423 27.4692 29.4933 27.8519 29.0911 28.2541C28.6889 28.6563 28.3052 28.9053 27.7683 29.1143C27.3633 29.2722 26.754 29.4589 25.6328 29.51C24.4205 29.5657 24.0564 29.5769 20.9854 29.5769C17.9153 29.5769 17.5512 29.5657 16.3389 29.51ZM16.2442 8.71896C15.0199 8.77469 14.1838 8.96884 13.4528 9.25309C12.6966 9.54662 12.0557 9.94049 11.4157 10.5796C10.7765 11.2187 10.3827 11.8596 10.0891 12.6167C9.80489 13.3478 9.61075 14.1838 9.55502 15.4081C9.49835 16.6343 9.48535 17.0263 9.48535 20.1493C9.48535 23.2723 9.49835 23.6643 9.55502 24.8905C9.61075 26.1148 9.80489 26.9508 10.0891 27.6819C10.3827 28.438 10.7756 29.0799 11.4157 29.719C12.0548 30.3581 12.6957 30.751 13.4528 31.0455C14.1848 31.3298 15.0199 31.5239 16.2442 31.5796C17.4713 31.6354 17.8624 31.6493 20.9854 31.6493C24.1093 31.6493 24.5004 31.6363 25.7266 31.5796C26.9509 31.5239 27.7869 31.3298 28.518 31.0455C29.2741 30.751 29.9151 30.3581 30.5551 29.719C31.1942 29.0799 31.5871 28.438 31.8816 27.6819C32.1658 26.9508 32.3609 26.1148 32.4157 24.8905C32.4714 23.6634 32.4844 23.2723 32.4844 20.1493C32.4844 17.0263 32.4714 16.6343 32.4157 15.4081C32.36 14.1838 32.1658 13.3478 31.8816 12.6167C31.5871 11.8606 31.1942 11.2196 30.5551 10.5796C29.916 9.94049 29.2741 9.54662 28.5189 9.25309C27.7869 8.96884 26.9509 8.77377 25.7275 8.71896C24.5013 8.66322 24.1093 8.64929 20.9863 8.64929C17.8624 8.64929 17.4713 8.66229 16.2442 8.71896Z" fill="white"/>
</g>
<defs>
<clipPath id="clip0_2012_97">
<rect width="40" height="40" fill="white" transform="translate(0.984375 0.149292)"/>
</clipPath>
</defs>
</svg>
