<svg width="41" height="41" viewBox="0 0 41 41" fill="none" xmlns="http://www.w3.org/2000/svg">
<g clip-path="url(#clip0_2012_94)">
<path d="M40.6562 20.1493C40.6562 9.1036 31.7019 0.149292 20.6562 0.149292C9.61055 0.149292 0.65625 9.1036 0.65625 20.1493C0.65625 31.195 9.61055 40.1493 20.6562 40.1493C31.7019 40.1493 40.6562 31.195 40.6562 20.1493Z" fill="white" fill-opacity="0.12"/>
<path d="M26.1558 10.1493H23.1558C21.8297 10.1493 20.558 10.6761 19.6203 11.6138C18.6826 12.5515 18.1558 13.8232 18.1558 15.1493V18.1493H15.1558V22.1493H18.1558V30.1493H22.1558V22.1493H25.1558L26.1558 18.1493H22.1558V15.1493C22.1558 14.8841 22.2612 14.6297 22.4487 14.4422C22.6363 14.2547 22.8906 14.1493 23.1558 14.1493H26.1558V10.1493Z" fill="white"/>
</g>
<defs>
<clipPath id="clip0_2012_94">
<rect width="40" height="40" fill="white" transform="translate(0.65625 0.149292)"/>
</clipPath>
</defs>
</svg>
